<svg xmlns="http://www.w3.org/2000/svg" width="2200" height="1500" viewBox="0 0 2200 1500">
  <defs>
    <style>
      .bg { fill: #ffffff; }
      .title { font: 700 34px Arial, sans-serif; fill: #1f2937; }
      .subtitle { font: 16px Arial, sans-serif; fill: #4b5563; }
      .entity { fill: #fffde7; stroke: #5b6472; stroke-width: 2.2; }
      .relation { fill: #fde68a; stroke: #5b6472; stroke-width: 2.2; }
      .attr { fill: #d9f99d; stroke: #5b6472; stroke-width: 2; }
      .key { fill: #bef264; stroke: #4b5563; stroke-width: 2.2; }
      .text { font: 18px Arial, sans-serif; fill: #111827; }
      .small { font: 16px Arial, sans-serif; fill: #111827; }
      .card { font: 700 16px Arial, sans-serif; fill: #111827; }
      .line { stroke: #6b7280; stroke-width: 2; fill: none; }
      .note { font: 14px Arial, sans-serif; fill: #6b7280; }
    </style>
  </defs>

  <rect width="2200" height="1500" class="bg" />
  <text x="1100" y="52" text-anchor="middle" class="title">Vehicle Management System Entity Relationship Diagram</text>
  <text x="1100" y="80" text-anchor="middle" class="subtitle">Chen notation style</text>

  <!-- Entities -->
  <rect x="120" y="220" width="150" height="64" class="entity" />
  <text x="195" y="260" text-anchor="middle" class="text">Roles</text>

  <rect x="470" y="220" width="170" height="64" class="entity" />
  <text x="555" y="260" text-anchor="middle" class="text">Users</text>

  <rect x="900" y="220" width="180" height="64" class="entity" />
  <text x="990" y="260" text-anchor="middle" class="text">Vehicles</text>

  <rect x="1490" y="220" width="220" height="64" class="entity" />
  <text x="1600" y="260" text-anchor="middle" class="text">Service_Master</text>

  <rect x="1460" y="620" width="170" height="64" class="entity" />
  <text x="1545" y="660" text-anchor="middle" class="text">Services</text>

  <rect x="890" y="620" width="190" height="64" class="entity" />
  <text x="985" y="660" text-anchor="middle" class="text">Job_Cards</text>

  <rect x="1030" y="1080" width="150" height="64" class="entity" />
  <text x="1105" y="1120" text-anchor="middle" class="text">Bills</text>

  <rect x="300" y="1040" width="210" height="64" class="entity" />
  <text x="405" y="1080" text-anchor="middle" class="text">Spare_Parts</text>

  <rect x="1680" y="1040" width="180" height="64" class="entity" />
  <text x="1770" y="1080" text-anchor="middle" class="text">Batteries</text>

  <!-- Relationships -->
  <polygon points="360,210 430,252 360,294 290,252" class="relation" />
  <text x="360" y="258" text-anchor="middle" class="small">assigned</text>

  <polygon points="1270,240 1340,282 1270,324 1200,282" class="relation" />
  <text x="1270" y="288" text-anchor="middle" class="small">has</text>

  <polygon points="1385,420 1455,462 1385,504 1315,462" class="relation" />
  <text x="1385" y="468" text-anchor="middle" class="small">defines</text>

  <polygon points="1225,620 1295,662 1225,704 1155,662" class="relation" />
  <text x="1225" y="668" text-anchor="middle" class="small">has</text>

  <polygon points="1045,820 1115,862 1045,904 975,862" class="relation" />
  <text x="1045" y="868" text-anchor="middle" class="small">generates</text>

  <polygon points="1360,920 1430,962 1360,1004 1290,962" class="relation" />
  <text x="1360" y="968" text-anchor="middle" class="small">linked</text>

  <!-- Main relationship lines -->
  <line x1="270" y1="252" x2="290" y2="252" class="line" />
  <line x1="430" y1="252" x2="470" y2="252" class="line" />
  <text x="280" y="235" class="card">1</text>
  <text x="445" y="235" class="card">M</text>

  <line x1="1080" y1="252" x2="1200" y2="282" class="line" />
  <line x1="1340" y1="282" x2="1490" y2="252" class="line" />
  <text x="1110" y="236" class="card">1</text>
  <text x="1450" y="236" class="card">M</text>

  <line x1="1565" y1="284" x2="1455" y2="462" class="line" />
  <line x1="1385" y1="504" x2="1500" y2="620" class="line" />
  <text x="1525" y="360" class="card">1</text>
  <text x="1460" y="590" class="card">M</text>

  <line x1="1080" y1="652" x2="1155" y2="662" class="line" />
  <line x1="1295" y1="662" x2="1460" y2="652" class="line" />
  <text x="1100" y="635" class="card">1</text>
  <text x="1430" y="635" class="card">M</text>

  <line x1="985" y1="684" x2="1045" y2="820" class="line" />
  <line x1="1045" y1="904" x2="1095" y2="1080" class="line" />
  <text x="995" y="760" class="card">1</text>
  <text x="1085" y="1060" class="card">M</text>

  <line x1="1545" y1="684" x2="1430" y2="962" class="line" />
  <line x1="1290" y1="962" x2="1180" y2="1105" class="line" />
  <text x="1530" y="805" class="card">1</text>
  <text x="1200" y="1088" class="card">M</text>

  <!-- Roles attributes -->
  <ellipse cx="110" cy="120" rx="78" ry="30" class="key" />
  <text x="110" y="127" text-anchor="middle" class="small">role_id</text>
  <line x1="128" y1="148" x2="170" y2="220" class="line" />

  <ellipse cx="250" cy="120" rx="92" ry="30" class="attr" />
  <text x="250" y="127" text-anchor="middle" class="small">role_name</text>
  <line x1="240" y1="150" x2="220" y2="220" class="line" />

  <!-- Users attributes -->
  <ellipse cx="555" cy="120" rx="82" ry="30" class="key" />
  <text x="555" y="127" text-anchor="middle" class="small">user_id</text>
  <line x1="555" y1="150" x2="555" y2="220" class="line" />

  <ellipse cx="395" cy="170" rx="82" ry="30" class="attr" />
  <text x="395" y="177" text-anchor="middle" class="small">name</text>
  <line x1="445" y1="190" x2="500" y2="220" class="line" />

  <ellipse cx="715" cy="170" rx="96" ry="30" class="attr" />
  <text x="715" y="177" text-anchor="middle" class="small">username</text>
  <line x1="665" y1="190" x2="610" y2="220" class="line" />

  <ellipse cx="385" cy="340" rx="82" ry="30" class="attr" />
  <text x="385" y="347" text-anchor="middle" class="small">email</text>
  <line x1="445" y1="325" x2="500" y2="284" class="line" />

  <ellipse cx="555" cy="390" rx="92" ry="30" class="attr" />
  <text x="555" y="397" text-anchor="middle" class="small">is_active</text>
  <line x1="555" y1="360" x2="555" y2="284" class="line" />

  <ellipse cx="745" cy="340" rx="130" ry="30" class="attr" />
  <text x="745" y="347" text-anchor="middle" class="small">login_logout_activity</text>
  <line x1="675" y1="326" x2="610" y2="284" class="line" />

  <!-- Vehicles attributes -->
  <ellipse cx="990" cy="120" rx="92" ry="30" class="key" />
  <text x="990" y="127" text-anchor="middle" class="small">vehicle_id</text>
  <line x1="990" y1="150" x2="990" y2="220" class="line" />

  <ellipse cx="840" cy="170" rx="72" ry="30" class="attr" />
  <text x="840" y="177" text-anchor="middle" class="small">model</text>
  <line x1="885" y1="190" x2="945" y2="220" class="line" />

  <ellipse cx="1140" cy="170" rx="72" ry="30" class="attr" />
  <text x="1140" y="177" text-anchor="middle" class="small">owner</text>
  <line x1="1095" y1="190" x2="1035" y2="220" class="line" />

  <ellipse cx="990" cy="370" rx="108" ry="30" class="attr" />
  <text x="990" y="377" text-anchor="middle" class="small">registration</text>
  <line x1="990" y1="340" x2="990" y2="284" class="line" />

  <!-- Service master attributes -->
  <ellipse cx="1600" cy="120" rx="128" ry="30" class="key" />
  <text x="1600" y="127" text-anchor="middle" class="small">master_service_id</text>
  <line x1="1600" y1="150" x2="1600" y2="220" class="line" />

  <ellipse cx="1455" cy="170" rx="96" ry="30" class="attr" />
  <text x="1455" y="177" text-anchor="middle" class="small">service_type</text>
  <line x1="1495" y1="190" x2="1545" y2="220" class="line" />

  <ellipse cx="1760" cy="170" rx="86" ry="30" class="attr" />
  <text x="1760" y="177" text-anchor="middle" class="small">base_cost</text>
  <line x1="1710" y1="190" x2="1655" y2="220" class="line" />

  <!-- Services attributes -->
  <ellipse cx="1545" cy="520" rx="86" ry="30" class="key" />
  <text x="1545" y="527" text-anchor="middle" class="small">service_id</text>
  <line x1="1545" y1="550" x2="1545" y2="620" class="line" />

  <ellipse cx="1370" cy="570" rx="102" ry="30" class="attr" />
  <text x="1370" y="577" text-anchor="middle" class="small">service_date</text>
  <line x1="1428" y1="590" x2="1485" y2="620" class="line" />

  <ellipse cx="1715" cy="570" rx="62" ry="30" class="attr" />
  <text x="1715" y="577" text-anchor="middle" class="small">cost</text>
  <line x1="1668" y1="590" x2="1605" y2="620" class="line" />

  <ellipse cx="1545" cy="760" rx="72" ry="30" class="attr" />
  <text x="1545" y="767" text-anchor="middle" class="small">status</text>
  <line x1="1545" y1="730" x2="1545" y2="684" class="line" />

  <!-- Job cards attributes -->
  <ellipse cx="985" cy="520" rx="72" ry="30" class="key" />
  <text x="985" y="527" text-anchor="middle" class="small">job_id</text>
  <line x1="985" y1="550" x2="985" y2="620" class="line" />

  <ellipse cx="760" cy="570" rx="108" ry="30" class="attr" />
  <text x="760" y="577" text-anchor="middle" class="small">estimated_cost</text>
  <line x1="822" y1="590" x2="900" y2="620" class="line" />

  <ellipse cx="760" cy="650" rx="98" ry="30" class="attr" />
  <text x="760" y="657" text-anchor="middle" class="small">actual_cost</text>
  <line x1="820" y1="650" x2="890" y2="650" class="line" />

  <ellipse cx="985" cy="790" rx="82" ry="30" class="attr" />
  <text x="985" y="797" text-anchor="middle" class="small">remarks</text>
  <line x1="985" y1="760" x2="985" y2="684" class="line" />

  <!-- Bills attributes -->
  <ellipse cx="1105" cy="980" rx="72" ry="30" class="key" />
  <text x="1105" y="987" text-anchor="middle" class="small">bill_id</text>
  <line x1="1105" y1="1010" x2="1105" y2="1080" class="line" />

  <ellipse cx="900" cy="1030" rx="96" ry="30" class="attr" />
  <text x="900" y="1037" text-anchor="middle" class="small">bill_number</text>
  <line x1="960" y1="1048" x2="1030" y2="1080" class="line" />

  <ellipse cx="1305" cy="1030" rx="112" ry="30" class="attr" />
  <text x="1305" y="1037" text-anchor="middle" class="small">customer_name</text>
  <line x1="1240" y1="1048" x2="1180" y2="1080" class="line" />

  <ellipse cx="900" cy="1190" rx="82" ry="30" class="attr" />
  <text x="900" y="1197" text-anchor="middle" class="small">subtotal</text>
  <line x1="960" y1="1178" x2="1030" y2="1140" class="line" />

  <ellipse cx="1105" cy="1240" rx="58" ry="30" class="attr" />
  <text x="1105" y="1247" text-anchor="middle" class="small">tax</text>
  <line x1="1105" y1="1210" x2="1105" y2="1144" class="line" />

  <ellipse cx="1310" cy="1190" rx="62" ry="30" class="attr" />
  <text x="1310" y="1197" text-anchor="middle" class="small">total</text>
  <line x1="1255" y1="1178" x2="1180" y2="1140" class="line" />

  <!-- Spare parts attributes -->
  <ellipse cx="405" cy="940" rx="72" ry="30" class="key" />
  <text x="405" y="947" text-anchor="middle" class="small">part_id</text>
  <line x1="405" y1="970" x2="405" y2="1040" class="line" />

  <ellipse cx="210" cy="990" rx="88" ry="30" class="attr" />
  <text x="210" y="997" text-anchor="middle" class="small">part_name</text>
  <line x1="270" y1="1008" x2="350" y2="1040" class="line" />

  <ellipse cx="600" cy="990" rx="96" ry="30" class="attr" />
  <text x="600" y="997" text-anchor="middle" class="small">part_number</text>
  <line x1="540" y1="1008" x2="460" y2="1040" class="line" />

  <ellipse cx="210" cy="1150" rx="78" ry="30" class="attr" />
  <text x="210" y="1157" text-anchor="middle" class="small">category</text>
  <line x1="270" y1="1138" x2="350" y2="1104" class="line" />

  <ellipse cx="600" cy="1150" rx="82" ry="30" class="attr" />
  <text x="600" y="1157" text-anchor="middle" class="small">stock_qty</text>
  <line x1="540" y1="1138" x2="460" y2="1104" class="line" />

  <!-- Batteries attributes -->
  <ellipse cx="1770" cy="940" rx="88" ry="30" class="key" />
  <text x="1770" y="947" text-anchor="middle" class="small">battery_id</text>
  <line x1="1770" y1="970" x2="1770" y2="1040" class="line" />

  <ellipse cx="1560" cy="990" rx="100" ry="30" class="attr" />
  <text x="1560" y="997" text-anchor="middle" class="small">battery_name</text>
  <line x1="1625" y1="1008" x2="1710" y2="1040" class="line" />

  <ellipse cx="1980" cy="990" rx="100" ry="30" class="attr" />
  <text x="1980" y="997" text-anchor="middle" class="small">battery_code</text>
  <line x1="1915" y1="1008" x2="1830" y2="1040" class="line" />

  <ellipse cx="1560" cy="1150" rx="64" ry="30" class="attr" />
  <text x="1560" y="1157" text-anchor="middle" class="small">brand</text>
  <line x1="1610" y1="1138" x2="1715" y2="1104" class="line" />

  <ellipse cx="1770" cy="1210" rx="82" ry="30" class="attr" />
  <text x="1770" y="1217" text-anchor="middle" class="small">stock_qty</text>
  <line x1="1770" y1="1180" x2="1770" y2="1104" class="line" />

  <ellipse cx="1985" cy="1150" rx="122" ry="30" class="attr" />
  <text x="1985" y="1157" text-anchor="middle" class="small">warranty_months</text>
  <line x1="1915" y1="1138" x2="1825" y2="1104" class="line" />

  <!-- Notes -->
  <text x="120" y="1435" class="note">Note: Spare_Parts and Batteries are standalone inventory entities in the current project schema.</text>
</svg>
